<svg width="35" height="34" viewBox="0 0 35 34" fill="none" xmlns="http://www.w3.org/2000/svg">
<path d="M22.3784 7.7047L4.76091 13.5772C4.0667 13.81 3.46118 14.2513 3.02692 14.8408C2.59266 15.4303 2.35078 16.1394 2.33427 16.8715C2.31776 17.6035 2.52741 18.3228 2.93465 18.9313C3.34189 19.5398 3.92689 20.0079 4.6099 20.2718L11.1284 22.7634C11.283 22.8267 11.4234 22.9201 11.5415 23.0382C11.6596 23.1563 11.753 23.2967 11.8163 23.4513L14.3079 29.9698C14.5205 30.5235 14.8681 31.0153 15.3191 31.4005C15.7701 31.7857 16.3102 32.0521 16.8903 32.1754C17.4705 32.2988 18.0723 32.2752 18.641 32.1069C19.2097 31.9385 19.7273 31.6307 20.1468 31.2114C20.5357 30.8147 20.8309 30.336 21.0109 29.8104L26.8834 12.193C27.0904 11.5668 27.1194 10.8954 26.9671 10.2537C26.8148 9.61199 26.4872 9.02523 26.0208 8.55888C25.5545 8.09253 24.9677 7.76492 24.326 7.61261C23.6843 7.4603 23.0129 7.48928 22.3867 7.69631L22.3784 7.7047ZM24.6267 11.4463L18.7542 29.0637C18.674 29.292 18.526 29.4903 18.3299 29.6321C18.1338 29.7738 17.8991 29.8523 17.6572 29.8568C17.4153 29.8614 17.1778 29.7919 16.9765 29.6576C16.7752 29.5234 16.6198 29.3308 16.531 29.1057L14.031 22.5956C13.9968 22.5095 13.9576 22.4255 13.9136 22.344L19.6938 16.5638C19.9163 16.3413 20.0413 16.0395 20.0413 15.7248C20.0413 15.4102 19.9163 15.1084 19.6938 14.8859C19.4713 14.6634 19.1695 14.5384 18.8549 14.5384C18.5402 14.5384 18.2384 14.6634 18.0159 14.8859L12.2357 20.6661C12.1542 20.6221 12.0702 20.5829 11.9841 20.5487L5.474 18.0487C5.2489 17.9599 5.05632 17.8045 4.92207 17.6032C4.78781 17.4019 4.71831 17.1644 4.72287 16.9225C4.72744 16.6806 4.80585 16.4459 4.9476 16.2498C5.08935 16.0537 5.28766 15.9057 5.51594 15.8255L23.1334 9.95302C23.3412 9.886 23.5635 9.87764 23.7758 9.92885C23.988 9.98006 24.182 10.0889 24.3364 10.2433C24.4908 10.3977 24.5996 10.5917 24.6508 10.8039C24.7021 11.0162 24.6937 11.2385 24.6267 11.4463Z" fill="black"/>
</svg>
