<svg width="34" height="36" viewBox="0 0 34 36" fill="none" xmlns="http://www.w3.org/2000/svg">
<g id="cancel_svgrepo.com" clip-path="url(#clip0_199_3512)">
<g id="icons">
<g id="ui-gambling-website-lined-icnos-casinoshunter">
<g id="1">
<path id="cancel" d="M4.85439 1.82782L17 14.331L29.1456 1.82782C30.1586 0.785064 31.7637 0.687949 32.9627 1.65229L33.1703 1.84683C34.2766 2.98566 34.2766 4.83207 33.1703 5.97091L21.0244 18.4737L33.1703 30.9765C34.1832 32.0192 34.2776 33.6716 33.3408 34.9059L33.1518 35.1196C32.0456 36.2584 30.2518 36.2584 29.1455 35.1196L17 22.6164L4.85439 35.1196C3.84143 36.1623 2.23633 36.2594 1.03724 35.2951L0.829725 35.1006C-0.276569 33.9617 -0.276581 32.1153 0.829725 30.9765L12.9756 18.4737L0.829725 5.9709C-0.183237 4.92815 -0.277576 3.27579 0.659213 2.04144L0.848142 1.82782C1.95444 0.688986 3.7481 0.688986 4.85439 1.82782ZM2.87397 34.5152C2.86642 34.5153 2.85886 34.5154 2.85131 34.5154L2.87397 34.5152ZM3.06203 34.4992L2.99995 34.5074C3.02053 34.5051 3.04132 34.5024 3.06203 34.4992ZM2.64249 34.4995L2.66774 34.5031C2.65918 34.502 2.65104 34.5008 2.64249 34.4995ZM2.46446 34.4602L2.4866 34.4664C2.47896 34.4644 2.47207 34.4624 2.46446 34.4602ZM3.24188 34.4591L3.16553 34.4792C3.19105 34.4733 3.21654 34.4665 3.24188 34.4591ZM3.40219 34.4009L3.34331 34.4249C3.36293 34.4175 3.3826 34.4094 3.40219 34.4009ZM2.30017 34.4009C2.30355 34.4023 2.30715 34.4039 2.30017 34.4009V34.4009ZM2.13399 34.3149L1.98336 34.2096C2.04627 34.26 2.11229 34.3041 2.18076 34.342L2.13399 34.3149ZM3.56795 34.3153L3.52238 34.3417C3.53734 34.3335 3.55268 34.3245 3.56795 34.3153ZM32.415 33.7287L32.3886 33.7769L32.2863 33.932C32.3352 33.8673 32.3781 33.7992 32.415 33.7287ZM32.4934 33.5509L32.4721 33.6059C32.4797 33.5875 32.4867 33.5692 32.4934 33.5509ZM32.5476 33.3648L32.5297 33.4367C32.5361 33.4134 32.5422 33.3891 32.5476 33.3648ZM32.5755 33.1925L32.5679 33.2535C32.5708 33.2335 32.5734 33.213 32.5755 33.1925ZM31.1487 3.88985L17 18.4551L2.85131 3.88985L2.83281 3.90886L16.9819 18.4737L2.83281 33.0385L2.85131 33.0575L17 18.4923L31.1487 33.0575L31.1672 33.0385L17.0181 18.4737L31.1672 3.90886L31.1487 3.88985ZM32.5832 33.0152L32.5832 33.0575C32.5834 33.0435 32.5834 33.0293 32.5832 33.0152ZM32.5677 32.8216L32.5755 32.8855C32.5734 32.8643 32.5708 32.843 32.5677 32.8216ZM32.5287 32.6364L32.5482 32.715C32.5424 32.6888 32.5359 32.6625 32.5287 32.6364ZM32.4722 32.4714L32.4955 32.5321C32.4882 32.5119 32.4805 32.4916 32.4722 32.4714ZM32.389 32.3008L32.4146 32.3477C32.4066 32.3323 32.398 32.3165 32.389 32.3008ZM1.58536 4.59966L1.60671 4.6391C1.59926 4.62585 1.59237 4.61309 1.58536 4.59966ZM1.50451 4.4153L1.52353 4.46554C1.51683 4.44881 1.51058 4.43223 1.50451 4.4153ZM1.45176 4.23236L1.46422 4.28427C1.45976 4.26699 1.45559 4.24976 1.45176 4.23236ZM1.42384 4.05605L1.42851 4.09785C1.42674 4.08386 1.42521 4.07008 1.42384 4.05605ZM1.41726 3.86655L1.41666 3.90886C1.41666 3.89467 1.41686 3.88074 1.41726 3.86655ZM1.43205 3.69388L1.42851 3.71988C1.42962 3.71106 1.43078 3.70268 1.43205 3.69388ZM1.47027 3.51068L1.46422 3.53346C1.46624 3.5256 1.46811 3.51852 1.47027 3.51068ZM1.52786 3.34152C1.52493 3.3487 1.52643 3.345 1.52786 3.34152V3.34152ZM1.61138 3.17047L1.71367 3.01536C1.66476 3.08012 1.62184 3.14815 1.58501 3.21864L1.61138 3.17047ZM3.52177 2.60534L3.56864 2.63245L3.71926 2.73774C3.65635 2.68739 3.59025 2.64325 3.52177 2.60534ZM30.4776 2.60565L30.4393 2.62768C30.4522 2.62001 30.4646 2.61287 30.4776 2.60565ZM2.18024 2.60565L2.14194 2.62768C2.1548 2.62001 2.1672 2.61287 2.18024 2.60565ZM31.8192 2.60534L31.866 2.63245L32.0166 2.73774C31.9537 2.68739 31.8877 2.64325 31.8192 2.60534ZM2.3537 2.52461L2.31055 2.54208C2.32483 2.53602 2.33927 2.53018 2.3537 2.52461ZM3.34305 2.52235L3.40245 2.54653C3.38264 2.53793 3.36292 2.52991 3.34305 2.52235ZM30.6567 2.52244L30.6079 2.54208C30.6242 2.53518 30.6402 2.5287 30.6567 2.52244ZM31.6464 2.52464L31.6998 2.54653C31.682 2.53879 31.6642 2.53152 31.6464 2.52464ZM2.53476 2.46871L2.4866 2.48094C2.50245 2.47661 2.5188 2.47246 2.53476 2.46871ZM3.16544 2.46815L3.24214 2.48835C3.21661 2.48084 3.19107 2.47413 3.16544 2.46815ZM30.8345 2.46817L30.784 2.48094C30.8008 2.47636 30.8176 2.47212 30.8345 2.46817ZM31.4657 2.46881L31.5355 2.48718C31.5129 2.48057 31.4893 2.47437 31.4657 2.46881ZM2.70778 2.43948L2.66774 2.44425C2.68097 2.44248 2.69452 2.44087 2.70778 2.43948ZM2.99407 2.43941L3.06186 2.44814C3.03937 2.44468 3.01676 2.44176 2.99407 2.43941ZM31.0057 2.43943L30.9651 2.44425C30.9787 2.44243 30.9921 2.44084 31.0057 2.43943ZM31.2926 2.43952L31.3575 2.44787C31.3362 2.44461 31.3144 2.4418 31.2926 2.43952ZM31.1076 2.43263L31.19 2.43264C31.1625 2.43182 31.1351 2.43182 31.1076 2.43263ZM2.80998 2.43264L2.89238 2.43263C2.86492 2.43182 2.83744 2.43182 2.80998 2.43264Z" fill="#FFB003"/>
</g>
</g>
</g>
</g>
<defs>
<clipPath id="clip0_199_3512">
<rect width="34" height="35" fill="white" transform="translate(0 0.973694)"/>
</clipPath>
</defs>
</svg>
