<svg width="74" height="72" viewBox="0 0 74 72" fill="none" xmlns="http://www.w3.org/2000/svg">
<circle cx="36.4003" cy="36" r="36" fill="#FFB003"/>
<path fill-rule="evenodd" clip-rule="evenodd" d="M36.4003 47.917C42.7516 47.917 47.9003 42.7682 47.9003 36.417C47.9003 30.0657 42.7516 24.917 36.4003 24.917C30.0491 24.917 24.9003 30.0657 24.9003 36.417C24.9003 42.7682 30.0491 47.917 36.4003 47.917ZM36.4003 44.0837C40.6344 44.0837 44.067 40.6511 44.067 36.417C44.067 32.1828 40.6344 28.7503 36.4003 28.7503C32.1661 28.7503 28.7337 32.1828 28.7337 36.417C28.7337 40.6511 32.1661 44.0837 36.4003 44.0837Z" fill="#015557"/>
<path d="M47.9003 23.0005C46.8417 23.0005 45.9836 23.8586 45.9836 24.9172C45.9836 25.9757 46.8417 26.8338 47.9003 26.8338C48.9589 26.8338 49.817 25.9757 49.817 24.9172C49.817 23.8586 48.9589 23.0005 47.9003 23.0005Z" fill="#015557"/>
<path fill-rule="evenodd" clip-rule="evenodd" d="M16.5704 21.6126C15.317 24.0726 15.317 27.2929 15.317 33.7335V39.1002C15.317 45.5407 15.317 48.7611 16.5704 51.221C17.673 53.3849 19.4323 55.1442 21.5961 56.2467C24.0561 57.5002 27.2764 57.5002 33.717 57.5002H39.0837C45.5243 57.5002 48.7446 57.5002 51.2045 56.2467C53.3684 55.1442 55.1277 53.3849 56.2302 51.221C57.4837 48.7611 57.4837 45.5407 57.4837 39.1002V33.7335C57.4837 27.2929 57.4837 24.0726 56.2302 21.6126C55.1277 19.4487 53.3684 17.6895 51.2045 16.5869C48.7446 15.3335 45.5243 15.3335 39.0837 15.3335H33.717C27.2764 15.3335 24.0561 15.3335 21.5961 16.5869C19.4323 17.6895 17.673 19.4487 16.5704 21.6126ZM39.0837 19.1668H33.717C30.4335 19.1668 28.2013 19.1698 26.476 19.3108C24.7954 19.4481 23.936 19.697 23.3364 20.0024C21.8938 20.7375 20.721 21.9103 19.986 23.3529C19.6805 23.9524 19.4316 24.8119 19.2943 26.4925C19.1533 28.2178 19.1504 30.4499 19.1504 33.7335V39.1002C19.1504 42.3838 19.1533 44.6158 19.2943 46.3411C19.4316 48.0219 19.6805 48.8813 19.986 49.4808C20.721 50.9233 21.8938 52.0961 23.3364 52.8312C23.936 53.1367 24.7954 53.3857 26.476 53.5229C28.2013 53.6638 30.4335 53.6668 33.717 53.6668H39.0837C42.3673 53.6668 44.5993 53.6638 46.3247 53.5229C48.0054 53.3857 48.8648 53.1367 49.4644 52.8312C50.9068 52.0961 52.0796 50.9233 52.8147 49.4808C53.1202 48.8813 53.3692 48.0219 53.5064 46.3411C53.6473 44.6158 53.6504 42.3838 53.6504 39.1002V33.7335C53.6504 30.4499 53.6473 28.2178 53.5064 26.4925C53.3692 24.8119 53.1202 23.9524 52.8147 23.3529C52.0796 21.9103 50.9068 20.7375 49.4644 20.0024C48.8648 19.697 48.0054 19.4481 46.3247 19.3108C44.5993 19.1698 42.3673 19.1668 39.0837 19.1668Z" fill="#015557"/>
</svg>
