<svg width="74" height="72" viewBox="0 0 74 72" fill="none" xmlns="http://www.w3.org/2000/svg">
<circle cx="36.9004" cy="36" r="36" fill="#FFB003"/>
<path fill-rule="evenodd" clip-rule="evenodd" d="M36.9004 47.917C43.2516 47.917 48.4004 42.7682 48.4004 36.417C48.4004 30.0657 43.2516 24.917 36.9004 24.917C30.5491 24.917 25.4004 30.0657 25.4004 36.417C25.4004 42.7682 30.5491 47.917 36.9004 47.917ZM36.9004 44.0837C41.1345 44.0837 44.5671 40.6511 44.5671 36.417C44.5671 32.1828 41.1345 28.7503 36.9004 28.7503C32.6662 28.7503 29.2337 32.1828 29.2337 36.417C29.2337 40.6511 32.6662 44.0837 36.9004 44.0837Z" fill="#015557"/>
<path d="M48.4003 23.0003C47.3417 23.0003 46.4836 23.8585 46.4836 24.917C46.4836 25.9755 47.3417 26.8337 48.4003 26.8337C49.4589 26.8337 50.317 25.9755 50.317 24.917C50.317 23.8585 49.4589 23.0003 48.4003 23.0003Z" fill="#015557"/>
<path fill-rule="evenodd" clip-rule="evenodd" d="M17.0706 21.6128C15.8171 24.0727 15.8171 27.2931 15.8171 33.7337V39.1003C15.8171 45.5409 15.8171 48.7613 17.0706 51.2211C18.1731 53.385 19.9324 55.1444 22.0963 56.2468C24.5562 57.5003 27.7765 57.5003 34.2171 57.5003H39.5838C46.0244 57.5003 49.2448 57.5003 51.7046 56.2468C53.8685 55.1444 55.6278 53.385 56.7303 51.2211C57.9838 48.7613 57.9838 45.5409 57.9838 39.1003V33.7337C57.9838 27.2931 57.9838 24.0727 56.7303 21.6128C55.6278 19.4489 53.8685 17.6896 51.7046 16.5871C49.2448 15.3336 46.0244 15.3336 39.5838 15.3336H34.2171C27.7765 15.3336 24.5562 15.3336 22.0963 16.5871C19.9324 17.6896 18.1731 19.4489 17.0706 21.6128ZM39.5838 19.167H34.2171C30.9336 19.167 28.7015 19.17 26.9761 19.3109C25.2955 19.4482 24.4361 19.6971 23.8365 20.0026C22.394 20.7376 21.2211 21.9105 20.4861 23.3531C20.1806 23.9526 19.9317 24.812 19.7944 26.4926C19.6535 28.218 19.6505 30.4501 19.6505 33.7337V39.1003C19.6505 42.3839 19.6535 44.6159 19.7944 46.3413C19.9317 48.022 20.1806 48.8815 20.4861 49.481C21.2211 50.9235 22.394 52.0963 23.8365 52.8313C24.4361 53.1368 25.2955 53.3858 26.9761 53.523C28.7015 53.6639 30.9336 53.667 34.2171 53.667H39.5838C42.8674 53.667 45.0994 53.6639 46.8248 53.523C48.5055 53.3858 49.3649 53.1368 49.9645 52.8313C51.407 52.0963 52.5798 50.9235 53.3148 49.481C53.6203 48.8815 53.8693 48.022 54.0065 46.3413C54.1474 44.6159 54.1505 42.3839 54.1505 39.1003V33.7337C54.1505 30.4501 54.1474 28.218 54.0065 26.4926C53.8693 24.812 53.6203 23.9526 53.3148 23.3531C52.5798 21.9105 51.407 20.7376 49.9645 20.0026C49.3649 19.6971 48.5055 19.4482 46.8248 19.3109C45.0994 19.17 42.8674 19.167 39.5838 19.167Z" fill="#015557"/>
</svg>
