<svg width="1920" height="1627" viewBox="0 0 1920 1627" fill="none" xmlns="http://www.w3.org/2000/svg">
<rect width="1920" height="1627" fill="#1E1E1E"/>
<rect width="1920" height="1920" transform="translate(0 -293)" fill="#FFB003"/>
<path d="M1203.11 -292.991L956.966 667.212L956.586 667L1101.23 -292.991H1002.46L955.932 666.634L955.968 666.657L955.959 666.896L956.568 667.163L956.577 667.081L956.938 667.33V667.339L957.449 667.7L957.503 667.573L957.968 667.777L957.521 667.524L1310.6 -292.991H1203.11Z" fill="#FFC414"/>
<path d="M1553.72 -292.991H1426.34L958.559 668.038L959.106 668.287L1553.72 -292.991Z" fill="#FFC414"/>
<path d="M960.095 668.712L960.984 669.104L961.26 669.05L1866.83 -292.991H1698.16L960.095 668.712Z" fill="#FFC414"/>
<path d="M1920 367.088L965.283 667.953L964.524 668.377L1920 471.731V367.088Z" fill="#FFC414"/>
<path d="M1920 -3.9162V-161.521L962.493 668.797L962.813 668.73L961.788 669.407L963.843 668.517L964.425 668.395L964.877 668.079L964.804 668.102L964.913 668.057L1920 -3.9162Z" fill="#FFC414"/>
<path d="M1920 133.13L965.712 667.709L1920 255.347V133.13Z" fill="#FFC414"/>
<path d="M0.00878906 -151.158V4.12587L946.056 670.472H946.083L946.62 670.098L0.00878906 -151.158Z" fill="#FFC414"/>
<path d="M0.00878906 967.765V1077.87L941.125 673.457L0.00878906 967.765Z" fill="#FFC414"/>
<path d="M949.858 667.822L950.404 667.443L950.341 667.181V667.19L704.977 -292.991H597.706L949.795 667.65L949.343 668.048L481.951 -292.991H354.239L948.869 668.459L948.49 668.784L948.905 668.499L948.973 668.63L949.406 668.174L949.397 668.147L949.831 667.727L949.858 667.822Z" fill="#FFC414"/>
<path d="M0.00878906 1626.99H43.0827L945.55 672.256L945.898 672.184L946.733 672.55L211.233 1626.99H354.945L947.817 673.024L948.729 673.417L481.811 1626.99H596.798L949.294 673.665L949.926 673.945L703.532 1626.99H804.91L950.526 674.202L951.109 674.455L950.535 674.139L950.608 673.679L951.177 674.076L902.937 1626.99H999.791L952.536 671.06L952.897 673.399C953.2 673.349 953.994 673.263 954.636 673.222L954.45 669.587L1097.33 1626.99H1198.12L956.595 673.904L956.645 673.949L957.273 673.43L1304.48 1626.99H1419.16L957.927 673.331L958.474 673.272L1545.6 1626.99H1688.75L959.259 673.195L960.79 673.042L1855.78 1626.99H1920V1507.11L961.878 672.925L964.452 672.663L1920 1349.1V1211.97L966.267 672.477L968.218 672.279L1920 1089.64V977.537L969.663 672.125L970.616 672.03L1920 872.447V771.932L973.596 671.723L983.336 670.725L1920 673.629V571.641L962.511 669.741L964.177 668.562L962.24 669.655L962.452 669.746L962.307 669.764L962.14 669.709L961.594 669.836L961.409 669.727L960.668 669.931L961.084 670.016L960.799 670.071L960.917 670.161L960.686 670.36L960.086 670.296L960.244 670.125L960.077 670.143L960.402 669.958L958.121 670.193L958.139 670.206L957.882 670.283L957.927 670.215L957.485 670.256L957.403 670.405L957.042 670.301L956.663 670.342L956.744 670.468L956.469 670.36L956.478 670.337L956.347 670.057L956.478 670.03L956.541 670.152L956.789 669.967L956.631 669.926L956.672 669.813L956.401 669.447L956.311 669.764L956.401 669.904L956.275 669.89V669.913L956.153 669.877L956.18 669.718L955.855 669.05L955.837 669.484L955.968 669.854L955.819 669.84L955.8 670.175L956.067 670.12L956.099 670.224L956.234 670.08L956.153 670.373L956.162 670.396L956.058 670.54L956.071 670.4L955.782 670.427L955.773 670.567L955.71 670.436L955.069 670.504L955.024 670.332L955.652 670.202L955.552 669.818L955.096 669.764L955.245 668.784L955.299 668.797L955.006 667.641L955.791 668.919L955.782 668.901L955.864 668.915V669.023L956.198 669.583L956.252 669.258L956.013 668.946L956.293 669.005L956.392 668.341L956.613 668.585L956.496 669.05L956.92 669.14L956.984 668.978L957.715 669.303L957.069 668.739L957.282 668.147L956.771 667.98L956.663 668.386L956.419 668.165L956.46 667.885L955.913 667.709V667.741L955.737 667.65L955.913 667.84L955.873 668.761L955.123 667.537L955.299 668.016L954.988 667.574L954.365 667.7L904.879 -292.991H806.567L952.071 667.921H951.488L951.425 669.086L951.804 670.116L951.371 670.251L951.366 670.473L951.98 670.477L951.962 670.947L951.037 671.032L951.073 671.132L951.33 671.078L951.312 671.376L951.163 671.358L951.294 671.728L951.276 672.03L950.96 671.376L950.969 671.34L950.86 671.172L951.01 671.037L950.499 671.091L950.58 671.227L950.63 671.218L950.621 671.29V671.303H950.612L950.499 671.759L950.156 671.321L950.359 671.276L950.183 671.258L950.237 671.118L949.908 670.992L949.628 671.177L949.646 671.2L948.919 671.245L948.991 671.136L947.379 671.398L947.474 671.47L947.307 671.525L947.492 671.561L947.221 671.913L947.907 671.773L948.381 672.107L948.576 671.796L948.558 671.782L948.585 671.787L949.695 671.407L949.434 671.963L949.881 672.062L950.043 671.619L950.427 672.03L950.395 672.166L950.802 672.423L950.824 672.261L950.888 672.274L950.833 672.197L950.906 671.741L951.646 672.938L951.583 673.168L951.24 672.73V672.884L951.556 673.232L951.488 673.471L951.213 673.385L951.177 674.053L950.621 673.575L950.675 673.218L950.165 673.046L950.138 673.155L949.583 672.861L949.637 672.721L949.239 672.369L949.113 672.626L949.343 672.789L949.072 672.699L948.842 673.182L948.002 672.717L948.187 672.419L947.095 672.071L947.027 672.161L946.751 672.008L946.851 671.99L946.399 671.805L946.336 671.827L946.047 671.732L946.115 671.651L945.519 671.565L945.771 671.457L945.541 671.331L945.334 671.511L944.936 671.38L944.548 671.597L944.706 671.665L944.178 671.805L944.318 671.705L0.00878906 766.021V864.694L942.114 672.952L941.504 673.29L944.986 671.791L944.995 671.796L944.196 672.495L943.884 672.595L944.141 672.541L0.00878906 1487.95V1626.99Z" fill="#FFC414"/>
<path d="M0.00878906 1332.88L942.376 673.064L941.328 673.394L0.00878906 1198.16V1332.88Z" fill="#FFC414"/>
<path d="M945.04 671.05L944.345 670.649L942.597 670.468H944.02L0.00878906 139.117V259.614L941.635 670.328L0.00878906 369.96V473.438L941.671 670.346L941.762 670.382L0.00878906 572.544V669.511L941.956 670.468L944.503 671.574L944.828 671.348L942.078 670.463L945.04 671.05Z" fill="#FFC414"/>
<path d="M948.314 668.905L209.61 -292.991H40.8601L947.808 669.258L948.314 668.905Z" fill="#FFC414"/>
<path d="M960.605 669.917L960.492 669.858L960.474 669.885L959.67 669.718L960.104 669.583L959.779 669.348L959.575 669.398L959.661 669.271L958.853 668.702L958.392 669.452L957.918 669.348L958.338 668.49L958.745 668.617L958.401 668.373L958.532 668.097L959.047 668.391L958.88 668.662L959.883 668.987L959.946 668.901L960.546 669.195L960.492 669.208L960.772 669.366L960.935 669.316L960.984 669.335L960.899 669.438L961.251 669.637L960.605 669.917Z" fill="#FFC414"/>
<path d="M946.178 671.285L945.704 671.186L946.115 670.834L946.657 670.888L946.318 670.653L946.566 670.468H946.53L946.788 670.251L946.855 670.31L947.984 669.678L947.235 670.468L947.049 670.472L947.149 670.563L946.824 670.91L947.018 670.928L946.824 671.005L946.769 670.969L946.178 671.285Z" fill="#FFC414"/>
<path d="M949.407 670.472H948.964L948.702 670.202L948.463 670.301L948.612 670.102L948.138 669.596L948.621 669.321L948.928 669.705L949.325 669.19L949.203 669L949.673 668.729V668.734L950.102 668.499L950.025 668.273L950.463 667.7L950.608 668.219L950.924 668.043L950.657 668.445L950.833 669.109L951.416 667.921L950.87 669.267L950.888 669.339L950.648 669.98L950.545 669.687L950.721 669.33L950.454 669.447L950.296 669.023L950.034 669.461L950.093 669.601L949.759 669.894L949.677 669.777L949.149 670.007L949.452 670.396L949.407 670.472Z" fill="#FFC414"/>
<mask id="mask0_59_3337" style="mask-type:luminance" maskUnits="userSpaceOnUse" x="960" y="-293" width="960" height="963">
<path d="M1920 -292.991H1860.95L960.158 669.371L961.011 669.845L961.287 669.818L1920 -167.374V-292.991Z" fill="white"/>
</mask>
<g mask="url(#mask0_59_3337)">
<path d="M1920 -292.991H1860.95L960.158 669.371L961.011 669.845L961.287 669.818L1920 -167.374V-292.991Z" fill="#FFB003"/>
</g>
<mask id="mask1_59_3337" style="mask-type:luminance" maskUnits="userSpaceOnUse" x="477" y="-293" width="474" height="962">
<path d="M950.057 667.483L950.639 667.158L950.608 666.892L950.599 666.896L803.171 -292.991H701.202L950.016 667.307L949.519 667.655L593.543 -292.991H477.534L949.009 668.016L948.603 668.305L949.036 668.066L949.108 668.197L949.574 667.79L949.564 667.768L950.043 667.388L950.057 667.483Z" fill="white"/>
</mask>
<g mask="url(#mask1_59_3337)">
<path d="M950.057 667.483L950.639 667.158L950.608 666.892L950.599 666.896L803.171 -292.991H701.202L950.016 667.307L949.519 667.655L593.543 -292.991H477.534L949.009 668.016L948.603 668.305L949.036 668.066L949.108 668.197L949.574 667.79L949.564 667.768L950.043 667.388L950.057 667.483Z" fill="#FFB003"/>
</g>
<mask id="mask2_59_3337" style="mask-type:luminance" maskUnits="userSpaceOnUse" x="956" y="-293" width="466" height="962">
<path d="M1306.44 -292.991L957.196 667.574L956.83 667.321L1199.31 -292.991H1097.6L956.225 666.892L956.257 666.919L956.225 667.158L956.798 667.483L956.817 667.402L957.151 667.682V667.691L957.625 668.102L957.688 667.98L958.131 668.228L957.706 667.935L1421.95 -292.991H1306.44Z" fill="white"/>
</mask>
<g mask="url(#mask2_59_3337)">
<path d="M1306.44 -292.991L957.196 667.574L956.83 667.321L1199.31 -292.991H1097.6L956.225 666.892L956.257 666.919L956.225 667.158L956.798 667.483L956.817 667.402L957.151 667.682V667.691L957.625 668.102L957.688 667.98L958.131 668.228L957.706 667.935L1421.95 -292.991H1306.44Z" fill="#FFB003"/>
</g>
<mask id="mask3_59_3337" style="mask-type:luminance" maskUnits="userSpaceOnUse" x="964" y="468" width="956" height="202">
<path d="M1920 468.15L965.396 669.113L964.592 669.465L1920 568.598V468.15Z" fill="white"/>
</mask>
<g mask="url(#mask3_59_3337)">
<path d="M1920 468.15L965.396 669.113L964.592 669.465L1920 568.598V468.15Z" fill="#FFB003"/>
</g>
<mask id="mask4_59_3337" style="mask-type:luminance" maskUnits="userSpaceOnUse" x="961" y="-9" width="959" height="680">
<path d="M1920 128.303V-8.93751L962.538 669.682L962.863 669.651L961.77 670.224L963.906 669.538L964.497 669.474L964.981 669.203L964.913 669.222L965.017 669.185L1920 128.303Z" fill="white"/>
</mask>
<g mask="url(#mask4_59_3337)">
<path d="M1920 128.303V-8.93751L962.538 669.682L962.863 669.651L961.77 670.224L963.906 669.538L964.497 669.474L964.981 669.203L964.913 669.222L965.017 669.185L1920 128.303Z" fill="#FFB003"/>
</g>
<mask id="mask5_59_3337" style="mask-type:luminance" maskUnits="userSpaceOnUse" x="965" y="250" width="955" height="419">
<path d="M1920 250.98L965.847 668.915L1920 363.173V250.98Z" fill="white"/>
</mask>
<g mask="url(#mask5_59_3337)">
<path d="M1920 250.98L965.847 668.915L1920 363.173V250.98Z" fill="#FFB003"/>
</g>
<mask id="mask6_59_3337" style="mask-type:luminance" maskUnits="userSpaceOnUse" x="0" y="671" width="943" height="532">
<path d="M0.00878906 1202.72L942.105 671.967L941.017 672.193L0.00878906 1082.07V1202.72Z" fill="white"/>
</mask>
<g mask="url(#mask6_59_3337)">
<path d="M0.00878906 1202.72L942.105 671.967L941.017 672.193L0.00878906 1082.07V1202.72Z" fill="#FFB003"/>
</g>
<mask id="mask7_59_3337" style="mask-type:luminance" maskUnits="userSpaceOnUse" x="0" y="9" width="945" height="662">
<path d="M944.954 670.224L944.29 669.759L942.57 669.407L943.992 669.547L0.00878906 9.1426V143.601L941.635 669.176L0.00878906 263.75V373.861L941.662 669.195L941.753 669.24L0.00878906 477.059V575.976L941.938 669.343L944.363 670.698L944.715 670.499L942.051 669.353L944.954 670.224Z" fill="white"/>
</mask>
<g mask="url(#mask7_59_3337)">
<path d="M944.954 670.224L944.29 669.759L942.57 669.407L943.992 669.547L0.00878906 9.1426V143.601L941.635 669.176L0.00878906 263.75V373.861L941.662 669.195L941.753 669.24L0.00878906 477.059V575.976L941.938 669.343L944.363 670.698L944.715 670.499L942.051 669.353L944.954 670.224Z" fill="#FFB003"/>
</g>
<mask id="mask8_59_3337" style="mask-type:luminance" maskUnits="userSpaceOnUse" x="958" y="-293" width="736" height="962">
<path d="M1693.06 -292.991H1549.25L958.704 668.544L959.223 668.847L1693.06 -292.991Z" fill="white"/>
</mask>
<g mask="url(#mask8_59_3337)">
<path d="M1693.06 -292.991H1549.25L958.704 668.544L959.223 668.847L1693.06 -292.991Z" fill="#FFB003"/>
</g>
<mask id="mask9_59_3337" style="mask-type:luminance" maskUnits="userSpaceOnUse" x="0" y="-293" width="1920" height="1920">
<path d="M945.686 671.439L946.485 671.886L48.9211 1626.99H216.066L947.519 672.464L948.381 672.942L359.354 1626.99H485.92L948.919 673.241L949.528 673.588L600.659 1626.99H707.298L950.102 673.904L950.648 674.207L950.12 673.837L950.237 673.385L950.766 673.837L808.296 1626.99H906.103L952.405 670.969L952.536 673.326C952.847 673.308 953.638 673.299 954.292 673.322L954.459 669.687L1002.7 1626.99H1100.57L956.171 674.193L956.216 674.243L956.884 673.791L1201.71 1626.99H1308.43L957.548 673.755L958.103 673.751L1423.33 1626.99H1550.09L958.889 673.751L960.429 673.742L1693.75 1626.99H1861.48L961.517 673.737L964.109 673.724L1920 1501.67V1344.18L965.933 673.719L967.902 673.71L1920 1207.57V1085.45L969.347 673.701L970.309 673.697L1920 973.55V868.817L973.307 673.683L983.097 673.642L1920 768.482V666.499L962.465 670.626L964.24 669.619L962.203 670.513L962.407 670.626H962.258L962.095 670.563L961.54 670.631L961.364 670.509L960.614 670.635L961.011 670.762L960.731 670.789L960.835 670.888L960.587 671.064L960 670.942L960.176 670.789H960.009L960.343 670.635L958.049 670.644L958.058 670.658L957.801 670.716L957.855 670.644L957.403 670.649L957.318 670.789L956.965 670.649L956.586 670.653L956.654 670.789L956.392 670.653L956.401 670.631L956.293 670.346L956.437 670.328L956.487 670.45L956.744 670.296L956.595 670.238L956.645 670.129L956.41 669.737L956.293 670.044L956.365 670.193L956.252 670.17L956.243 670.193L956.126 670.143L956.162 669.989L955.904 669.285L955.846 669.718L955.94 670.107L955.791 670.075L955.737 670.405L956.013 670.378L956.04 670.482L956.18 670.355L956.08 670.631V670.653L955.959 670.789L955.995 670.653L955.701 670.658L955.688 670.789L955.633 670.658H954.979L954.952 670.482L955.597 670.414L955.534 670.025L955.078 669.926L955.322 668.964L955.376 668.982L955.2 667.808L955.864 669.159L955.855 669.131L955.922 669.159L955.913 669.262L956.198 669.849L956.275 669.533L956.071 669.204L956.347 669.285L956.505 668.639L956.708 668.901L956.541 669.348L956.956 669.479L957.033 669.326L957.733 669.727L957.142 669.1L957.413 668.531L956.92 668.319L956.771 668.711L956.55 668.468L956.622 668.183L956.099 667.962V667.989L955.922 667.89L956.08 668.093L955.949 669.005L955.322 667.714L955.457 668.206L955.191 667.736L954.55 667.799L999.086 -292.991H901.772L952.247 667.795L951.673 667.741L951.497 668.897L951.777 669.958L951.33 670.048L951.294 670.269L951.913 670.332L951.849 670.793H950.924L950.951 670.893L951.204 670.865L951.163 671.159L951.01 671.132L951.109 671.516L951.064 671.809L950.806 671.127L950.815 671.091L950.73 670.915L950.897 670.793H950.377L950.445 670.947L950.499 670.942L950.481 671.005V671.019H950.472L950.314 671.466L950.016 670.987L950.228 670.969L950.043 670.933L950.111 670.793L949.795 670.64L949.492 670.798L949.519 670.825L948.788 670.798L948.878 670.694L947.235 670.798L947.334 670.879L947.158 670.915L947.343 670.969L947.036 671.299L947.731 671.227L948.169 671.606L948.391 671.317L948.381 671.299L948.4 671.308L949.556 671.037L949.23 671.565L949.673 671.705L949.872 671.285L950.219 671.723L950.165 671.859L950.544 672.152L950.59 671.99L950.648 672.012L950.608 671.931L950.72 671.493L951.339 672.748L951.249 672.97L950.96 672.504L950.942 672.663L951.222 673.033L951.136 673.263L950.86 673.15L950.766 673.814L950.26 673.281L950.35 672.929L949.858 672.712L949.813 672.816L949.298 672.477L949.361 672.333L948.991 671.945L948.851 672.188L949.063 672.374L948.797 672.261L948.517 672.717L947.74 672.17L947.953 671.895L946.9 671.443L946.824 671.529L946.557 671.348L946.657 671.34L946.223 671.114L946.16 671.127L945.88 671.001L945.966 670.929L945.374 670.784L945.641 670.703L945.419 670.549L945.198 670.707L944.81 670.545L944.403 670.721L944.557 670.802L944.02 670.893L944.168 670.807L0.00878906 672.473V769.182L941.848 671.832L941.211 672.107L944.828 670.96L944.837 670.965L943.965 671.583L943.649 671.647L943.902 671.619L0.00878906 1337.79V1493.51L945.343 671.475L945.686 671.439Z" fill="white"/>
</mask>
<g mask="url(#mask9_59_3337)">
<path d="M945.686 671.439L946.485 671.886L48.9211 1626.99H216.066L947.519 672.464L948.381 672.942L359.354 1626.99H485.92L948.919 673.241L949.528 673.588L600.659 1626.99H707.298L950.102 673.904L950.648 674.207L950.12 673.837L950.237 673.385L950.766 673.837L808.296 1626.99H906.103L952.405 670.969L952.536 673.326C952.847 673.308 953.638 673.299 954.292 673.322L954.459 669.687L1002.7 1626.99H1100.57L956.171 674.193L956.216 674.243L956.884 673.791L1201.71 1626.99H1308.43L957.548 673.755L958.103 673.751L1423.33 1626.99H1550.09L958.889 673.751L960.429 673.742L1693.75 1626.99H1861.48L961.517 673.737L964.109 673.724L1920 1501.67V1344.18L965.933 673.719L967.902 673.71L1920 1207.57V1085.45L969.347 673.701L970.309 673.697L1920 973.55V868.817L973.307 673.683L983.097 673.642L1920 768.482V666.499L962.465 670.626L964.24 669.619L962.203 670.513L962.407 670.626H962.258L962.095 670.563L961.54 670.631L961.364 670.509L960.614 670.635L961.011 670.762L960.731 670.789L960.835 670.888L960.587 671.064L960 670.942L960.176 670.789H960.009L960.343 670.635L958.049 670.644L958.058 670.658L957.801 670.716L957.855 670.644L957.403 670.649L957.318 670.789L956.965 670.649L956.586 670.653L956.654 670.789L956.392 670.653L956.401 670.631L956.293 670.346L956.437 670.328L956.487 670.45L956.744 670.296L956.595 670.238L956.645 670.129L956.41 669.737L956.293 670.044L956.365 670.193L956.252 670.17L956.243 670.193L956.126 670.143L956.162 669.989L955.904 669.285L955.846 669.718L955.94 670.107L955.791 670.075L955.737 670.405L956.013 670.378L956.04 670.482L956.18 670.355L956.08 670.631V670.653L955.959 670.789L955.995 670.653L955.701 670.658L955.688 670.789L955.633 670.658H954.979L954.952 670.482L955.597 670.414L955.534 670.025L955.078 669.926L955.322 668.964L955.376 668.982L955.2 667.808L955.864 669.159L955.855 669.131L955.922 669.159L955.913 669.262L956.198 669.849L956.275 669.533L956.071 669.204L956.347 669.285L956.505 668.639L956.708 668.901L956.541 669.348L956.956 669.479L957.033 669.326L957.733 669.727L957.142 669.1L957.413 668.531L956.92 668.319L956.771 668.711L956.55 668.468L956.622 668.183L956.099 667.962V667.989L955.922 667.89L956.08 668.093L955.949 669.005L955.322 667.714L955.457 668.206L955.191 667.736L954.55 667.799L999.086 -292.991H901.772L952.247 667.795L951.673 667.741L951.497 668.897L951.777 669.958L951.33 670.048L951.294 670.269L951.913 670.332L951.849 670.793H950.924L950.951 670.893L951.204 670.865L951.163 671.159L951.01 671.132L951.109 671.516L951.064 671.809L950.806 671.127L950.815 671.091L950.73 670.915L950.897 670.793H950.377L950.445 670.947L950.499 670.942L950.481 671.005V671.019H950.472L950.314 671.466L950.016 670.987L950.228 670.969L950.043 670.933L950.111 670.793L949.795 670.64L949.492 670.798L949.519 670.825L948.788 670.798L948.878 670.694L947.235 670.798L947.334 670.879L947.158 670.915L947.343 670.969L947.036 671.299L947.731 671.227L948.169 671.606L948.391 671.317L948.381 671.299L948.4 671.308L949.556 671.037L949.23 671.565L949.673 671.705L949.872 671.285L950.219 671.723L950.165 671.859L950.544 672.152L950.59 671.99L950.648 672.012L950.608 671.931L950.72 671.493L951.339 672.748L951.249 672.97L950.96 672.504L950.942 672.663L951.222 673.033L951.136 673.263L950.86 673.15L950.766 673.814L950.26 673.281L950.35 672.929L949.858 672.712L949.813 672.816L949.298 672.477L949.361 672.333L948.991 671.945L948.851 672.188L949.063 672.374L948.797 672.261L948.517 672.717L947.74 672.17L947.953 671.895L946.9 671.443L946.824 671.529L946.557 671.348L946.657 671.34L946.223 671.114L946.16 671.127L945.88 671.001L945.966 670.929L945.374 670.784L945.641 670.703L945.419 670.549L945.198 670.707L944.81 670.545L944.403 670.721L944.557 670.802L944.02 670.893L944.168 670.807L0.00878906 672.473V769.182L941.848 671.832L941.211 672.107L944.828 670.96L944.837 670.965L943.965 671.583L943.649 671.647L943.902 671.619L0.00878906 1337.79V1493.51L945.343 671.475L945.686 671.439Z" fill="#FFB003"/>
</g>
<mask id="mask10_59_3337" style="mask-type:luminance" maskUnits="userSpaceOnUse" x="0" y="672" width="941" height="300">
<path d="M0.00878906 868.148V971.604L940.818 672.238L0.00878906 868.148Z" fill="white"/>
</mask>
<g mask="url(#mask10_59_3337)">
<path d="M0.00878906 868.148V971.604L940.818 672.238L0.00878906 868.148Z" fill="#FFB003"/>
</g>
<mask id="mask11_59_3337" style="mask-type:luminance" maskUnits="userSpaceOnUse" x="204" y="-293" width="745" height="962">
<path d="M948.409 668.413L349.521 -292.991H204.521L947.88 668.711L948.409 668.413Z" fill="white"/>
</mask>
<g mask="url(#mask11_59_3337)">
<path d="M948.409 668.413L349.521 -292.991H204.521L947.88 668.711L948.409 668.413Z" fill="#FFB003"/>
</g>
<mask id="mask12_59_3337" style="mask-type:luminance" maskUnits="userSpaceOnUse" x="0" y="-293" width="947" height="963">
<path d="M34.7924 -292.991H0.00878906V-145.713L946.02 669.75H946.038L946.611 669.429L34.7924 -292.991Z" fill="white"/>
</mask>
<g mask="url(#mask12_59_3337)">
<path d="M34.7924 -292.991H0.00878906V-145.713L946.02 669.75H946.038L946.611 669.429L34.7924 -292.991Z" fill="#FFB003"/>
</g>
<mask id="mask13_59_3337" style="mask-type:luminance" maskUnits="userSpaceOnUse" x="957" y="668" width="5" height="3">
<path d="M960.555 670.612L960.447 670.549L960.42 670.576L959.639 670.328L960.086 670.233L959.788 669.976L959.575 669.998L959.679 669.881L958.93 669.235L958.392 669.935L957.936 669.791L958.438 668.973L958.826 669.14L958.51 668.865L958.668 668.603L959.151 668.946L958.957 669.199L959.928 669.619L960 669.542L960.564 669.89L960.501 669.899L960.772 670.089L960.935 670.053L960.984 670.075L960.889 670.17L961.215 670.405L960.555 670.612Z" fill="white"/>
</mask>
<g mask="url(#mask13_59_3337)">
<path d="M960.555 670.612L960.447 670.549L960.42 670.576L959.639 670.328L960.086 670.233L959.788 669.976L959.575 669.998L959.679 669.881L958.93 669.235L958.392 669.935L957.936 669.791L958.438 668.973L958.826 669.14L958.51 668.865L958.668 668.603L959.151 668.946L958.957 669.199L959.928 669.619L960 669.542L960.564 669.89L960.501 669.899L960.772 670.089L960.935 670.053L960.984 670.075L960.889 670.17L961.215 670.405L960.555 670.612Z" fill="#FFB003"/>
</g>
<mask id="mask14_59_3337" style="mask-type:luminance" maskUnits="userSpaceOnUse" x="945" y="669" width="4" height="2">
<path d="M946.056 670.572L945.595 670.423L946.038 670.116L946.566 670.22L946.268 669.958L946.521 669.8L946.494 669.795L946.769 669.601L946.833 669.66L948.011 669.149L947.185 669.863L947.009 669.845L947.095 669.944L946.742 670.256L946.928 670.296L946.724 670.36L946.67 670.314L946.056 670.572Z" fill="white"/>
</mask>
<g mask="url(#mask14_59_3337)">
<path d="M946.056 670.572L945.595 670.423L946.038 670.116L946.566 670.22L946.268 669.958L946.521 669.8L946.494 669.795L946.769 669.601L946.833 669.66L948.011 669.149L947.185 669.863L947.009 669.845L947.095 669.944L946.742 670.256L946.928 670.296L946.724 670.36L946.67 670.314L946.056 670.572Z" fill="#FFB003"/>
</g>
<mask id="mask15_59_3337" style="mask-type:luminance" maskUnits="userSpaceOnUse" x="948" y="667" width="4" height="4">
<path d="M949.343 670.08L948.914 670.034L948.675 669.736L948.427 669.818L948.594 669.633L948.169 669.082L948.684 668.856L948.946 669.267L949.397 668.788L949.294 668.589L949.786 668.368V668.373L950.242 668.174L950.183 667.948L950.675 667.415L950.766 667.957L951.1 667.804L950.802 668.179L950.906 668.86L951.601 667.732L950.924 669.023L950.942 669.091L950.639 669.705L950.562 669.407L950.775 669.073L950.499 669.158L950.386 668.716L950.066 669.131L950.12 669.276L949.759 669.538L949.695 669.411L949.14 669.587L949.406 670.007L949.343 670.08Z" fill="white"/>
</mask>
<g mask="url(#mask15_59_3337)">
<path d="M949.343 670.08L948.914 670.034L948.675 669.736L948.427 669.818L948.594 669.633L948.169 669.082L948.684 668.856L948.946 669.267L949.397 668.788L949.294 668.589L949.786 668.368V668.373L950.242 668.174L950.183 667.948L950.675 667.415L950.766 667.957L951.1 667.804L950.802 668.179L950.906 668.86L951.601 667.732L950.924 669.023L950.942 669.091L950.639 669.705L950.562 669.407L950.775 669.073L950.499 669.158L950.386 668.716L950.066 669.131L950.12 669.276L949.759 669.538L949.695 669.411L949.14 669.587L949.406 670.007L949.343 670.08Z" fill="#FFB003"/>
</g>
<path d="M1024.26 1042.15V1037.23H1028.54V1042.36L1025.34 1049.9H1023.78L1026.16 1042.15H1024.26Z" fill="#FFC414"/>
<path d="M1027.22 1107.17V1102.36H1031.51V1107.17H1027.22Z" fill="#FFC414"/>
<circle cx="960" cy="518.352" r="322" fill="#BF4144"/>
</svg>
