<svg width="333" height="100" viewBox="0 0 333 100" fill="none" xmlns="http://www.w3.org/2000/svg">
<path d="M17.2535 1.71999C28.7735 1.71999 35.3015 7.224 35.3015 19.384V41.528C35.3015 53.944 29.1575 59.32 17.7655 59.32H16.3575L16.4855 99H0.3575V1.71999H17.2535ZM19.4295 41.144V19.896C19.4295 17.464 19.1735 16.312 17.3815 16.312H16.2295V44.728H17.3815C19.3015 44.728 19.4295 43.704 19.4295 41.144ZM38.8575 99V1.71999H57.2895C68.1695 1.71999 73.9295 9.016 73.9295 19V35.512C73.9295 41.4 69.5775 49.336 65.4815 49.336H65.0975V49.592H65.4815C69.5775 49.592 73.9295 53.432 73.9295 61.496V92.984C73.9295 96.44 74.0575 97.208 74.8255 97.848V99H59.2095C58.5695 97.464 58.3135 95.8 58.3135 87.352V61.368C58.3135 59.192 57.9295 58.424 56.5215 58.424C55.2415 58.424 54.8575 59.192 54.8575 61.368V99H38.8575ZM54.8575 42.552H56.2655C57.6735 42.552 58.1855 41.528 58.1855 38.968V19.896C58.1855 17.464 57.6735 16.312 56.2655 16.312H54.8575V42.552ZM78.6075 1.71999H94.7355V99H78.6075V1.71999ZM133.296 99H97.0715V85.816L117.04 16.44H98.4795V1.71999H131.76V15.032L111.792 84.28H133.296V99ZM153.236 84.28H165.908V99H137.108V1.71999H164.5V16.44H153.236V39.736H162.452V54.456H153.236V84.28ZM205.378 1.71999C216.899 1.71999 223.427 7.224 223.427 19.384V41.528C223.427 53.944 217.283 59.32 205.891 59.32H204.483L204.611 99H188.483V1.71999H205.378ZM207.555 41.144V19.896C207.555 17.464 207.299 16.312 205.507 16.312H204.355V44.728H205.507C207.427 44.728 207.555 43.704 207.555 41.144ZM244.135 0.311996C255.015 0.311996 261.671 4.536 261.671 21.176V79.032C261.671 95.672 255.015 99.896 244.135 99.896C232.999 99.896 226.727 95.544 226.727 79.032V21.176C226.727 4.66399 232.999 0.311996 244.135 0.311996ZM244.263 84.28C245.671 84.28 245.799 83.256 245.799 80.696V19.512C245.799 17.208 245.543 15.928 244.263 15.928C242.855 15.928 242.599 17.208 242.599 19.512V80.696C242.599 83.256 242.727 84.28 244.263 84.28ZM282.385 0.311996C293.265 0.311996 299.921 4.536 299.921 21.176V79.032C299.921 95.672 293.265 99.896 282.385 99.896C271.249 99.896 264.977 95.544 264.977 79.032V21.176C264.977 4.66399 271.249 0.311996 282.385 0.311996ZM282.513 84.28C283.921 84.28 284.049 83.256 284.049 80.696V19.512C284.049 17.208 283.793 15.928 282.513 15.928C281.105 15.928 280.849 17.208 280.849 19.512V80.696C280.849 83.256 280.977 84.28 282.513 84.28ZM319.739 84.28H332.923V99H303.483V1.71999H319.739V84.28Z" fill="#015557"/>
</svg>
