<svg width="1920" height="1080" viewBox="0 0 1920 1080" fill="none" xmlns="http://www.w3.org/2000/svg">
<g clip-path="url(#clip0_502_3237)">
<rect width="1920" height="1920" transform="translate(0 -164.406)" fill="#07998E"/>
<path d="M1203.11 -164.397L956.966 795.806L956.586 795.594L1101.23 -164.397H1002.46L955.932 795.228L955.968 795.25L955.959 795.49L956.568 795.756L956.577 795.675L956.939 795.923V795.932L957.449 796.294L957.503 796.167L957.968 796.37L957.521 796.117L1310.6 -164.397H1203.11Z" fill="#015557"/>
<path d="M1553.72 -164.397H1426.34L958.56 796.632L959.106 796.881L1553.72 -164.397Z" fill="#015557"/>
<path d="M960.095 797.305L960.984 797.698L961.26 797.644L1866.83 -164.397H1698.16L960.095 797.305Z" fill="#015557"/>
<path d="M1920 495.682L965.283 796.547L964.524 796.971L1920 600.325V495.682Z" fill="#015557"/>
<path d="M1920 124.678V-32.9277L962.493 797.391L962.813 797.323L961.788 798.001L963.843 797.111L964.425 796.989L964.877 796.673L964.804 796.696L964.913 796.65L1920 124.678Z" fill="#015557"/>
<path d="M1920 261.724L965.712 796.303L1920 383.941V261.724Z" fill="#015557"/>
<path d="M0.00878906 -22.5646V132.72L946.056 799.066H946.083L946.62 798.691L0.00878906 -22.5646Z" fill="#015557"/>
<path d="M0.00878906 1096.36V1206.46L941.125 802.051L0.00878906 1096.36Z" fill="#015557"/>
<path d="M949.858 796.416L950.405 796.036L950.341 795.774V795.783L704.977 -164.397H597.706L949.795 796.244L949.343 796.641L481.951 -164.397H354.239L948.869 797.052L948.49 797.377L948.905 797.093L948.973 797.224L949.407 796.768L949.398 796.741L949.831 796.321L949.858 796.416Z" fill="#015557"/>
<path d="M0.00878906 1755.58H43.0827L945.55 800.85L945.898 800.778L946.733 801.143L211.233 1755.58H354.945L947.817 801.618L948.729 802.01L481.811 1755.58H596.798L949.294 802.259L949.926 802.539L703.532 1755.58H804.91L950.526 802.796L951.109 803.049L950.535 802.733L950.608 802.272L951.177 802.67L902.937 1755.58H999.791L952.536 799.653L952.897 801.992C953.2 801.943 953.994 801.857 954.635 801.816L954.45 798.181L1097.33 1755.58H1198.12L956.595 802.498L956.645 802.543L957.273 802.024L1304.48 1755.58H1419.16L957.927 801.925L958.474 801.866L1545.6 1755.58H1688.75L959.259 801.789L960.79 801.636L1855.78 1755.58H1920V1635.7L961.878 801.518L964.452 801.256L1920 1477.69V1340.56L966.267 801.071L968.218 800.872L1920 1218.23V1106.13L969.663 800.719L970.616 800.624L1920 1001.04V900.526L973.596 800.317L983.336 799.319L1920 802.223V700.235L962.511 798.335L964.177 797.156L962.24 798.249L962.452 798.339L962.307 798.357L962.14 798.303L961.594 798.43L961.409 798.321L960.668 798.524L961.084 798.61L960.799 798.664L960.917 798.755L960.686 798.953L960.086 798.89L960.244 798.719L960.077 798.737L960.402 798.552L958.122 798.786L958.139 798.8L957.882 798.877L957.927 798.809L957.485 798.849L957.404 798.999L957.042 798.895L956.663 798.935L956.744 799.062L956.469 798.953L956.478 798.931L956.347 798.651L956.478 798.624L956.541 798.746L956.789 798.561L956.631 798.52L956.672 798.407L956.401 798.041L956.311 798.357L956.401 798.497L956.275 798.484V798.506L956.153 798.47L956.18 798.312L955.855 797.644L955.837 798.077L955.968 798.448L955.819 798.434L955.8 798.768L956.067 798.714L956.099 798.818L956.234 798.673L956.153 798.967L956.162 798.99L956.058 799.134L956.071 798.994L955.782 799.021L955.773 799.161L955.71 799.03L955.069 799.098L955.024 798.926L955.651 798.795L955.552 798.411L955.096 798.357L955.245 797.377L955.299 797.391L955.006 796.235L955.791 797.513L955.782 797.495L955.864 797.508V797.617L956.198 798.177L956.252 797.852L956.013 797.54L956.293 797.599L956.392 796.935L956.613 797.179L956.496 797.644L956.92 797.734L956.984 797.572L957.715 797.897L957.069 797.332L957.282 796.741L956.771 796.574L956.663 796.98L956.419 796.759L956.46 796.479L955.913 796.303V796.334L955.737 796.244L955.913 796.434L955.873 797.355L955.123 796.131L955.299 796.61L954.988 796.167L954.365 796.294L904.879 -164.397H806.567L952.071 796.515H951.488L951.425 797.68L951.804 798.71L951.371 798.845L951.366 799.066L951.98 799.071L951.962 799.54L951.037 799.626L951.073 799.726L951.33 799.671L951.312 799.969L951.163 799.951L951.294 800.322L951.276 800.624L950.96 799.969L950.969 799.933L950.86 799.766L951.01 799.631L950.499 799.685L950.581 799.82L950.63 799.811L950.621 799.884V799.897H950.612L950.499 800.353L950.156 799.915L950.359 799.87L950.183 799.852L950.237 799.712L949.908 799.586L949.628 799.771L949.646 799.793L948.919 799.838L948.991 799.73L947.379 799.992L947.474 800.064L947.307 800.118L947.492 800.155L947.221 800.507L947.907 800.367L948.381 800.701L948.576 800.389L948.558 800.376L948.585 800.38L949.695 800.001L949.434 800.556L949.881 800.656L950.043 800.213L950.427 800.624L950.395 800.76L950.802 801.017L950.824 800.854L950.888 800.868L950.833 800.791L950.906 800.335L951.646 801.532L951.583 801.762L951.24 801.324V801.478L951.556 801.825L951.488 802.065L951.213 801.979L951.177 802.647L950.621 802.168L950.675 801.812L950.165 801.64L950.138 801.748L949.583 801.455L949.637 801.315L949.239 800.963L949.113 801.22L949.343 801.383L949.072 801.292L948.842 801.776L948.002 801.31L948.187 801.012L947.094 800.665L947.027 800.755L946.751 800.602L946.851 800.583L946.399 800.398L946.336 800.421L946.047 800.326L946.115 800.245L945.519 800.159L945.771 800.051L945.541 799.924L945.333 800.105L944.936 799.974L944.548 800.191L944.706 800.258L944.177 800.398L944.318 800.299L0.00878906 894.615V993.288L942.114 801.545L941.504 801.884L944.986 800.385L944.995 800.389L944.196 801.089L943.884 801.189L944.141 801.134L0.00878906 1616.55V1755.58Z" fill="#015557"/>
<path d="M0.00878906 1461.47L942.376 801.658L941.328 801.988L0.00878906 1326.75V1461.47Z" fill="#015557"/>
<path d="M945.04 799.644L944.345 799.242L942.597 799.062H944.02L0.00878906 267.711V388.208L941.635 798.922L0.00878906 498.554V602.031L941.671 798.94L941.762 798.976L0.00878906 701.138V798.104L941.956 799.062L944.503 800.168L944.828 799.942L942.078 799.057L945.04 799.644Z" fill="#015557"/>
<path d="M948.314 797.499L209.61 -164.397H40.8601L947.808 797.851L948.314 797.499Z" fill="#015557"/>
<path d="M960.605 798.511L960.492 798.452L960.474 798.479L959.671 798.312L960.104 798.177L959.779 797.942L959.576 797.992L959.661 797.865L958.853 797.296L958.393 798.046L957.918 797.942L958.338 797.084L958.745 797.21L958.402 796.967L958.533 796.691L959.047 796.985L958.88 797.255L959.883 797.581L959.946 797.495L960.547 797.788L960.492 797.802L960.772 797.96L960.935 797.91L960.985 797.928L960.899 798.032L961.251 798.231L960.605 798.511Z" fill="#015557"/>
<path d="M946.178 799.879L945.704 799.78L946.115 799.427L946.657 799.482L946.318 799.247L946.567 799.062H946.53L946.788 798.845L946.855 798.904L947.984 798.271L947.235 799.062L947.05 799.066L947.149 799.156L946.824 799.504L947.018 799.522L946.824 799.599L946.77 799.563L946.178 799.879Z" fill="#015557"/>
<path d="M949.407 799.066H948.964L948.702 798.795L948.463 798.895L948.612 798.696L948.138 798.19L948.621 797.915L948.928 798.299L949.325 797.784L949.203 797.594L949.673 797.323V797.328L950.102 797.093L950.025 796.867L950.463 796.294L950.608 796.813L950.924 796.637L950.657 797.039L950.833 797.702L951.416 796.515L950.87 797.861L950.888 797.933L950.648 798.574L950.545 798.28L950.721 797.924L950.454 798.041L950.296 797.617L950.034 798.055L950.093 798.195L949.759 798.488L949.677 798.371L949.149 798.601L949.452 798.989L949.407 799.066Z" fill="#015557"/>
<mask id="mask0_502_3237" style="mask-type:luminance" maskUnits="userSpaceOnUse" x="960" y="-165" width="960" height="964">
<path d="M1920 -164.397H1860.95L960.158 797.964L961.012 798.439L961.287 798.411L1920 -38.7798V-164.397Z" fill="white"/>
</mask>
<g mask="url(#mask0_502_3237)">
<path d="M1920 -164.397H1860.95L960.158 797.964L961.012 798.439L961.287 798.411L1920 -38.7798V-164.397Z" fill="#07998E"/>
</g>
<mask id="mask1_502_3237" style="mask-type:luminance" maskUnits="userSpaceOnUse" x="477" y="-165" width="474" height="962">
<path d="M950.057 796.077L950.639 795.752L950.608 795.485L950.599 795.49L803.172 -164.397H701.202L950.016 795.901L949.52 796.248L593.543 -164.397H477.535L949.009 796.61L948.603 796.899L949.036 796.659L949.109 796.79L949.574 796.384L949.565 796.361L950.043 795.982L950.057 796.077Z" fill="white"/>
</mask>
<g mask="url(#mask1_502_3237)">
<path d="M950.057 796.077L950.639 795.752L950.608 795.485L950.599 795.49L803.172 -164.397H701.202L950.016 795.901L949.52 796.248L593.543 -164.397H477.535L949.009 796.61L948.603 796.899L949.036 796.659L949.109 796.79L949.574 796.384L949.565 796.361L950.043 795.982L950.057 796.077Z" fill="#07998E"/>
</g>
<mask id="mask2_502_3237" style="mask-type:luminance" maskUnits="userSpaceOnUse" x="956" y="-165" width="466" height="962">
<path d="M1306.44 -164.397L957.196 796.167L956.83 795.914L1199.31 -164.397H1097.6L956.225 795.485L956.257 795.513L956.225 795.752L956.799 796.077L956.817 795.996L957.151 796.276V796.285L957.625 796.696L957.688 796.574L958.131 796.822L957.706 796.529L1421.95 -164.397H1306.44Z" fill="white"/>
</mask>
<g mask="url(#mask2_502_3237)">
<path d="M1306.44 -164.397L957.196 796.167L956.83 795.914L1199.31 -164.397H1097.6L956.225 795.485L956.257 795.513L956.225 795.752L956.799 796.077L956.817 795.996L957.151 796.276V796.285L957.625 796.696L957.688 796.574L958.131 796.822L957.706 796.529L1421.95 -164.397H1306.44Z" fill="#07998E"/>
</g>
<mask id="mask3_502_3237" style="mask-type:luminance" maskUnits="userSpaceOnUse" x="964" y="596" width="956" height="203">
<path d="M1920 596.744L965.396 797.707L964.592 798.059L1920 697.192V596.744Z" fill="white"/>
</mask>
<g mask="url(#mask3_502_3237)">
<path d="M1920 596.744L965.396 797.707L964.592 798.059L1920 697.192V596.744Z" fill="#07998E"/>
</g>
<mask id="mask4_502_3237" style="mask-type:luminance" maskUnits="userSpaceOnUse" x="961" y="119" width="959" height="680">
<path d="M1920 256.896V119.656L962.538 798.276L962.863 798.244L961.77 798.818L963.906 798.131L964.497 798.068L964.981 797.797L964.913 797.815L965.017 797.779L1920 256.896Z" fill="white"/>
</mask>
<g mask="url(#mask4_502_3237)">
<path d="M1920 256.896V119.656L962.538 798.276L962.863 798.244L961.77 798.818L963.906 798.131L964.497 798.068L964.981 797.797L964.913 797.815L965.017 797.779L1920 256.896Z" fill="#07998E"/>
</g>
<mask id="mask5_502_3237" style="mask-type:luminance" maskUnits="userSpaceOnUse" x="965" y="379" width="955" height="419">
<path d="M1920 379.574L965.847 797.508L1920 491.767V379.574Z" fill="white"/>
</mask>
<g mask="url(#mask5_502_3237)">
<path d="M1920 379.574L965.847 797.508L1920 491.767V379.574Z" fill="#07998E"/>
</g>
<mask id="mask6_502_3237" style="mask-type:luminance" maskUnits="userSpaceOnUse" x="0" y="800" width="943" height="532">
<path d="M0.00878906 1331.31L942.105 800.561L941.017 800.787L0.00878906 1210.66V1331.31Z" fill="white"/>
</mask>
<g mask="url(#mask6_502_3237)">
<path d="M0.00878906 1331.31L942.105 800.561L941.017 800.787L0.00878906 1210.66V1331.31Z" fill="#07998E"/>
</g>
<mask id="mask7_502_3237" style="mask-type:luminance" maskUnits="userSpaceOnUse" x="0" y="137" width="945" height="663">
<path d="M944.954 798.818L944.29 798.353L942.57 798L943.992 798.14L0.00878906 137.736V272.195L941.635 797.77L0.00878906 392.344V502.455L941.662 797.788L941.753 797.833L0.00878906 605.653V704.57L941.938 797.937L944.363 799.292L944.715 799.093L942.051 797.946L944.954 798.818Z" fill="white"/>
</mask>
<g mask="url(#mask7_502_3237)">
<path d="M944.954 798.818L944.29 798.353L942.57 798L943.992 798.14L0.00878906 137.736V272.195L941.635 797.77L0.00878906 392.344V502.455L941.662 797.788L941.753 797.833L0.00878906 605.653V704.57L941.938 797.937L944.363 799.292L944.715 799.093L942.051 797.946L944.954 798.818Z" fill="#07998E"/>
</g>
<mask id="mask8_502_3237" style="mask-type:luminance" maskUnits="userSpaceOnUse" x="958" y="-165" width="736" height="963">
<path d="M1693.06 -164.397H1549.25L958.704 797.138L959.223 797.441L1693.06 -164.397Z" fill="white"/>
</mask>
<g mask="url(#mask8_502_3237)">
<path d="M1693.06 -164.397H1549.25L958.704 797.138L959.223 797.441L1693.06 -164.397Z" fill="#07998E"/>
</g>
<mask id="mask9_502_3237" style="mask-type:luminance" maskUnits="userSpaceOnUse" x="0" y="-165" width="1920" height="1921">
<path d="M945.686 800.033L946.485 800.48L48.9211 1755.58H216.066L947.519 801.058L948.381 801.536L359.354 1755.58H485.92L948.919 801.834L949.528 802.182L600.659 1755.58H707.298L950.102 802.498L950.648 802.801L950.12 802.43L950.237 801.979L950.766 802.43L808.296 1755.58H906.103L952.405 799.563L952.536 801.92C952.847 801.902 953.638 801.893 954.292 801.916L954.459 798.281L1002.7 1755.58H1100.57L956.171 802.787L956.216 802.837L956.884 802.385L1201.71 1755.58H1308.43L957.548 802.349L958.103 802.345L1423.33 1755.58H1550.09L958.889 802.345L960.429 802.336L1693.75 1755.58H1861.48L961.517 802.331L964.109 802.317L1920 1630.27V1472.78L965.933 802.313L967.902 802.304L1920 1336.17V1214.05L969.347 802.295L970.309 802.29L1920 1102.14V997.411L973.307 802.277L983.097 802.236L1920 897.076V795.093L962.465 799.22L964.24 798.213L962.203 799.107L962.407 799.22H962.258L962.095 799.157L961.54 799.224L961.364 799.102L960.614 799.229L961.011 799.355L960.732 799.382L960.835 799.482L960.587 799.658L960 799.536L960.176 799.382H960.009L960.343 799.229L958.049 799.238L958.058 799.251L957.801 799.31L957.855 799.238L957.404 799.242L957.318 799.382L956.966 799.242L956.586 799.247L956.654 799.382L956.392 799.247L956.401 799.224L956.293 798.94L956.437 798.922L956.487 799.044L956.744 798.89L956.595 798.831L956.645 798.723L956.41 798.33L956.293 798.637L956.365 798.786L956.252 798.764L956.243 798.786L956.126 798.737L956.162 798.583L955.904 797.879L955.846 798.312L955.94 798.7L955.791 798.669L955.737 798.999L956.013 798.971L956.04 799.075L956.18 798.949L956.08 799.224V799.247L955.959 799.382L955.995 799.247L955.701 799.251L955.688 799.382L955.633 799.251H954.979L954.952 799.075L955.597 799.008L955.534 798.619L955.078 798.52L955.322 797.558L955.376 797.576L955.2 796.402L955.864 797.752L955.855 797.725L955.922 797.752L955.913 797.856L956.198 798.443L956.275 798.127L956.071 797.797L956.347 797.879L956.505 797.233L956.708 797.495L956.541 797.942L956.956 798.073L957.033 797.919L957.733 798.321L957.142 797.694L957.413 797.125L956.92 796.912L956.771 797.305L956.55 797.061L956.622 796.777L956.099 796.556V796.583L955.922 796.483L956.08 796.687L955.95 797.599L955.322 796.307L955.457 796.799L955.191 796.33L954.55 796.393L999.086 -164.397H901.772L952.247 796.389L951.673 796.334L951.497 797.49L951.777 798.552L951.33 798.642L951.294 798.863L951.913 798.926L951.849 799.387H950.924L950.951 799.486L951.204 799.459L951.163 799.753L951.01 799.726L951.109 800.109L951.064 800.403L950.806 799.721L950.815 799.685L950.73 799.509L950.897 799.387H950.377L950.445 799.54L950.499 799.536L950.481 799.599V799.613H950.472L950.314 800.06L950.016 799.581L950.228 799.563L950.043 799.527L950.111 799.387L949.795 799.233L949.492 799.391L949.519 799.418L948.788 799.391L948.878 799.288L947.234 799.391L947.334 799.473L947.158 799.509L947.343 799.563L947.036 799.893L947.731 799.82L948.169 800.2L948.391 799.911L948.381 799.893L948.4 799.902L949.556 799.631L949.23 800.159L949.673 800.299L949.872 799.879L950.219 800.317L950.165 800.453L950.544 800.746L950.59 800.583L950.648 800.606L950.608 800.525L950.721 800.087L951.339 801.342L951.249 801.563L950.96 801.098L950.942 801.256L951.222 801.627L951.136 801.857L950.86 801.744L950.766 802.408L950.26 801.875L950.35 801.523L949.858 801.306L949.813 801.41L949.298 801.071L949.361 800.927L948.991 800.538L948.851 800.782L949.063 800.967L948.797 800.854L948.517 801.31L947.74 800.764L947.953 800.489L946.9 800.037L946.824 800.123L946.557 799.942L946.656 799.933L946.223 799.708L946.16 799.721L945.88 799.595L945.966 799.522L945.374 799.378L945.641 799.297L945.419 799.143L945.198 799.301L944.81 799.139L944.403 799.315L944.557 799.396L944.02 799.486L944.168 799.4L0.00878906 801.067V897.776L941.848 800.425L941.211 800.701L944.828 799.554L944.837 799.558L943.965 800.177L943.649 800.24L943.902 800.213L0.00878906 1466.39V1622.1L945.343 800.069L945.686 800.033Z" fill="white"/>
</mask>
<g mask="url(#mask9_502_3237)">
<path d="M945.686 800.033L946.485 800.48L48.9211 1755.58H216.066L947.519 801.058L948.381 801.536L359.354 1755.58H485.92L948.919 801.834L949.528 802.182L600.659 1755.58H707.298L950.102 802.498L950.648 802.801L950.12 802.43L950.237 801.979L950.766 802.43L808.296 1755.58H906.103L952.405 799.563L952.536 801.92C952.847 801.902 953.638 801.893 954.292 801.916L954.459 798.281L1002.7 1755.58H1100.57L956.171 802.787L956.216 802.837L956.884 802.385L1201.71 1755.58H1308.43L957.548 802.349L958.103 802.345L1423.33 1755.58H1550.09L958.889 802.345L960.429 802.336L1693.75 1755.58H1861.48L961.517 802.331L964.109 802.317L1920 1630.27V1472.78L965.933 802.313L967.902 802.304L1920 1336.17V1214.05L969.347 802.295L970.309 802.29L1920 1102.14V997.411L973.307 802.277L983.097 802.236L1920 897.076V795.093L962.465 799.22L964.24 798.213L962.203 799.107L962.407 799.22H962.258L962.095 799.157L961.54 799.224L961.364 799.102L960.614 799.229L961.011 799.355L960.732 799.382L960.835 799.482L960.587 799.658L960 799.536L960.176 799.382H960.009L960.343 799.229L958.049 799.238L958.058 799.251L957.801 799.31L957.855 799.238L957.404 799.242L957.318 799.382L956.966 799.242L956.586 799.247L956.654 799.382L956.392 799.247L956.401 799.224L956.293 798.94L956.437 798.922L956.487 799.044L956.744 798.89L956.595 798.831L956.645 798.723L956.41 798.33L956.293 798.637L956.365 798.786L956.252 798.764L956.243 798.786L956.126 798.737L956.162 798.583L955.904 797.879L955.846 798.312L955.94 798.7L955.791 798.669L955.737 798.999L956.013 798.971L956.04 799.075L956.18 798.949L956.08 799.224V799.247L955.959 799.382L955.995 799.247L955.701 799.251L955.688 799.382L955.633 799.251H954.979L954.952 799.075L955.597 799.008L955.534 798.619L955.078 798.52L955.322 797.558L955.376 797.576L955.2 796.402L955.864 797.752L955.855 797.725L955.922 797.752L955.913 797.856L956.198 798.443L956.275 798.127L956.071 797.797L956.347 797.879L956.505 797.233L956.708 797.495L956.541 797.942L956.956 798.073L957.033 797.919L957.733 798.321L957.142 797.694L957.413 797.125L956.92 796.912L956.771 797.305L956.55 797.061L956.622 796.777L956.099 796.556V796.583L955.922 796.483L956.08 796.687L955.95 797.599L955.322 796.307L955.457 796.799L955.191 796.33L954.55 796.393L999.086 -164.397H901.772L952.247 796.389L951.673 796.334L951.497 797.49L951.777 798.552L951.33 798.642L951.294 798.863L951.913 798.926L951.849 799.387H950.924L950.951 799.486L951.204 799.459L951.163 799.753L951.01 799.726L951.109 800.109L951.064 800.403L950.806 799.721L950.815 799.685L950.73 799.509L950.897 799.387H950.377L950.445 799.54L950.499 799.536L950.481 799.599V799.613H950.472L950.314 800.06L950.016 799.581L950.228 799.563L950.043 799.527L950.111 799.387L949.795 799.233L949.492 799.391L949.519 799.418L948.788 799.391L948.878 799.288L947.234 799.391L947.334 799.473L947.158 799.509L947.343 799.563L947.036 799.893L947.731 799.82L948.169 800.2L948.391 799.911L948.381 799.893L948.4 799.902L949.556 799.631L949.23 800.159L949.673 800.299L949.872 799.879L950.219 800.317L950.165 800.453L950.544 800.746L950.59 800.583L950.648 800.606L950.608 800.525L950.721 800.087L951.339 801.342L951.249 801.563L950.96 801.098L950.942 801.256L951.222 801.627L951.136 801.857L950.86 801.744L950.766 802.408L950.26 801.875L950.35 801.523L949.858 801.306L949.813 801.41L949.298 801.071L949.361 800.927L948.991 800.538L948.851 800.782L949.063 800.967L948.797 800.854L948.517 801.31L947.74 800.764L947.953 800.489L946.9 800.037L946.824 800.123L946.557 799.942L946.656 799.933L946.223 799.708L946.16 799.721L945.88 799.595L945.966 799.522L945.374 799.378L945.641 799.297L945.419 799.143L945.198 799.301L944.81 799.139L944.403 799.315L944.557 799.396L944.02 799.486L944.168 799.4L0.00878906 801.067V897.776L941.848 800.425L941.211 800.701L944.828 799.554L944.837 799.558L943.965 800.177L943.649 800.24L943.902 800.213L0.00878906 1466.39V1622.1L945.343 800.069L945.686 800.033Z" fill="#07998E"/>
</g>
<mask id="mask10_502_3237" style="mask-type:luminance" maskUnits="userSpaceOnUse" x="0" y="800" width="941" height="301">
<path d="M0.00878906 996.742V1100.2L940.818 800.832L0.00878906 996.742Z" fill="white"/>
</mask>
<g mask="url(#mask10_502_3237)">
<path d="M0.00878906 996.742V1100.2L940.818 800.832L0.00878906 996.742Z" fill="#07998E"/>
</g>
<mask id="mask11_502_3237" style="mask-type:luminance" maskUnits="userSpaceOnUse" x="204" y="-165" width="745" height="963">
<path d="M948.409 797.007L349.521 -164.397H204.521L947.88 797.305L948.409 797.007Z" fill="white"/>
</mask>
<g mask="url(#mask11_502_3237)">
<path d="M948.409 797.007L349.521 -164.397H204.521L947.88 797.305L948.409 797.007Z" fill="#07998E"/>
</g>
<mask id="mask12_502_3237" style="mask-type:luminance" maskUnits="userSpaceOnUse" x="0" y="-165" width="947" height="964">
<path d="M34.7924 -164.397H0.00878906V-17.1189L946.02 798.344H946.038L946.612 798.023L34.7924 -164.397Z" fill="white"/>
</mask>
<g mask="url(#mask12_502_3237)">
<path d="M34.7924 -164.397H0.00878906V-17.1189L946.02 798.344H946.038L946.612 798.023L34.7924 -164.397Z" fill="#07998E"/>
</g>
<mask id="mask13_502_3237" style="mask-type:luminance" maskUnits="userSpaceOnUse" x="957" y="797" width="5" height="3">
<path d="M960.556 799.206L960.447 799.143L960.42 799.17L959.639 798.922L960.086 798.827L959.788 798.57L959.576 798.592L959.68 798.475L958.93 797.829L958.393 798.529L957.937 798.384L958.438 797.567L958.826 797.734L958.51 797.459L958.668 797.197L959.151 797.54L958.957 797.793L959.928 798.213L960 798.136L960.565 798.484L960.501 798.493L960.772 798.682L960.935 798.646L960.985 798.669L960.89 798.764L961.215 798.998L960.556 799.206Z" fill="white"/>
</mask>
<g mask="url(#mask13_502_3237)">
<path d="M960.556 799.206L960.447 799.143L960.42 799.17L959.639 798.922L960.086 798.827L959.788 798.57L959.576 798.592L959.68 798.475L958.93 797.829L958.393 798.529L957.937 798.384L958.438 797.567L958.826 797.734L958.51 797.459L958.668 797.197L959.151 797.54L958.957 797.793L959.928 798.213L960 798.136L960.565 798.484L960.501 798.493L960.772 798.682L960.935 798.646L960.985 798.669L960.89 798.764L961.215 798.998L960.556 799.206Z" fill="#07998E"/>
</g>
<mask id="mask14_502_3237" style="mask-type:luminance" maskUnits="userSpaceOnUse" x="945" y="797" width="4" height="3">
<path d="M946.056 799.166L945.595 799.017L946.038 798.709L946.566 798.813L946.268 798.551L946.521 798.393L946.494 798.389L946.769 798.195L946.832 798.253L948.011 797.743L947.185 798.457L947.009 798.439L947.094 798.538L946.742 798.849L946.927 798.89L946.724 798.953L946.67 798.908L946.056 799.166Z" fill="white"/>
</mask>
<g mask="url(#mask14_502_3237)">
<path d="M946.056 799.166L945.595 799.017L946.038 798.709L946.566 798.813L946.268 798.551L946.521 798.393L946.494 798.389L946.769 798.195L946.832 798.253L948.011 797.743L947.185 798.457L947.009 798.439L947.094 798.538L946.742 798.849L946.927 798.89L946.724 798.953L946.67 798.908L946.056 799.166Z" fill="#07998E"/>
</g>
<mask id="mask15_502_3237" style="mask-type:luminance" maskUnits="userSpaceOnUse" x="948" y="796" width="4" height="3">
<path d="M949.343 798.673L948.914 798.628L948.675 798.33L948.426 798.411L948.593 798.226L948.169 797.675L948.684 797.45L948.946 797.861L949.397 797.382L949.293 797.183L949.785 796.962V796.966L950.241 796.768L950.183 796.542L950.675 796.009L950.765 796.551L951.1 796.397L950.801 796.772L950.905 797.454L951.601 796.325L950.923 797.617L950.941 797.684L950.639 798.299L950.562 798.001L950.774 797.666L950.499 797.752L950.386 797.31L950.065 797.725L950.12 797.87L949.758 798.131L949.695 798.005L949.14 798.181L949.406 798.601L949.343 798.673Z" fill="white"/>
</mask>
<g mask="url(#mask15_502_3237)">
<path d="M949.343 798.673L948.914 798.628L948.675 798.33L948.426 798.411L948.593 798.226L948.169 797.675L948.684 797.45L948.946 797.861L949.397 797.382L949.293 797.183L949.785 796.962V796.966L950.241 796.768L950.183 796.542L950.675 796.009L950.765 796.551L951.1 796.397L950.801 796.772L950.905 797.454L951.601 796.325L950.923 797.617L950.941 797.684L950.639 798.299L950.562 798.001L950.774 797.666L950.499 797.752L950.386 797.31L950.065 797.725L950.12 797.87L949.758 798.131L949.695 798.005L949.14 798.181L949.406 798.601L949.343 798.673Z" fill="#07998E"/>
</g>
</g>
<circle cx="960.5" cy="661.5" r="289.5" fill="#BF4144"/>
<defs>
<clipPath id="clip0_502_3237">
<rect width="1920" height="1920" fill="white" transform="translate(0 -164.406)"/>
</clipPath>
</defs>
</svg>
