<svg width="73" height="72" viewBox="0 0 73 72" fill="none" xmlns="http://www.w3.org/2000/svg">
<circle cx="36.5" cy="36" r="36" fill="#FFB003"/>
<path d="M37.4538 14.2663C39.8308 14.23 42.1902 14.2489 44.5483 14.23C44.6267 17.179 45.8231 19.8332 47.7267 21.7992L47.7238 21.7963C49.7725 23.6418 52.4384 24.8382 55.3772 25.0415L55.4179 25.0444V32.3566C52.6417 32.2869 50.031 31.6466 47.6773 30.546L47.7964 30.5954C46.658 30.048 45.6953 29.486 44.7806 28.8588L44.8561 28.9081C44.8387 34.2065 44.8735 39.5048 44.8198 44.7842C44.6702 47.4747 43.7758 49.9286 42.3412 51.9774L42.3703 51.9324C39.9716 55.3678 36.0861 57.6227 31.6677 57.7563H31.6473C31.4687 57.765 31.2582 57.7694 31.0462 57.7694C28.5343 57.7694 26.1864 57.0695 24.1856 55.8542L24.2436 55.8876C20.6021 53.6965 18.0901 49.9475 17.6255 45.5872L17.6197 45.5276C17.5834 44.6201 17.5659 43.7126 17.6022 42.824C18.3137 35.885 24.1275 30.517 31.1943 30.517C31.9886 30.517 32.7668 30.5852 33.5233 30.7144L33.442 30.7028C33.4783 33.3875 33.3694 36.0737 33.3694 38.7584C32.7552 38.5363 32.0466 38.4071 31.3076 38.4071C28.5953 38.4071 26.288 40.1407 25.4343 42.5612L25.4212 42.6048C25.2281 43.2248 25.1163 43.9377 25.1163 44.6753C25.1163 44.9744 25.1352 45.2706 25.17 45.561L25.1671 45.5262C25.6492 48.4969 28.196 50.7388 31.2669 50.7388C31.3555 50.7388 31.4426 50.7374 31.5297 50.733H31.5167C33.6409 50.6691 35.4849 49.5264 36.5275 47.8377L36.542 47.8116C36.9297 47.2715 37.1954 46.6181 37.284 45.908L37.2854 45.8877C37.4669 42.6396 37.3943 39.4104 37.4117 36.1623C37.4292 28.8501 37.3943 21.5553 37.448 14.2619L37.4538 14.2663Z" fill="#015557"/>
</svg>
