<svg width="72" height="72" viewBox="0 0 72 72" fill="none" xmlns="http://www.w3.org/2000/svg">
<circle cx="36" cy="36" r="36" fill="#FFB003"/>
<path d="M36.9539 14.2663C39.3308 14.23 41.6903 14.2489 44.0483 14.23C44.1267 17.179 45.3232 19.8332 47.2267 21.7992L47.2238 21.7963C49.2726 23.6418 51.9384 24.8382 54.8773 25.0415L54.9179 25.0444V32.3566C52.1417 32.2869 49.531 31.6466 47.1774 30.546L47.2964 30.5954C46.1581 30.048 45.1954 29.486 44.2806 28.8588L44.3562 28.9081C44.3387 34.2065 44.3736 39.5048 44.3199 44.7842C44.1703 47.4747 43.2759 49.9286 41.8413 51.9774L41.8703 51.9324C39.4717 55.3678 35.5861 57.6227 31.1677 57.7563H31.1474C30.9688 57.765 30.7583 57.7694 30.5463 57.7694C28.0343 57.7694 25.6865 57.0695 23.6856 55.8542L23.7437 55.8876C20.1021 53.6965 17.5902 49.9475 17.1255 45.5872L17.1197 45.5276C17.0834 44.6201 17.066 43.7126 17.1023 42.824C17.8138 35.885 23.6275 30.517 30.6944 30.517C31.4886 30.517 32.2669 30.5852 33.0234 30.7144L32.9421 30.7028C32.9784 33.3875 32.8695 36.0737 32.8695 38.7584C32.2553 38.5363 31.5467 38.4071 30.8076 38.4071C28.0953 38.4071 25.7881 40.1407 24.9343 42.5612L24.9213 42.6048C24.7282 43.2248 24.6163 43.9377 24.6163 44.6753C24.6163 44.9744 24.6352 45.2706 24.6701 45.561L24.6672 45.5262C25.1492 48.4969 27.696 50.7388 30.767 50.7388C30.8556 50.7388 30.9427 50.7374 31.0298 50.733H31.0167C33.141 50.6691 34.985 49.5264 36.0275 47.8377L36.0421 47.8116C36.4297 47.2715 36.6955 46.6181 36.784 45.908L36.7855 45.8877C36.967 42.6396 36.8944 39.4104 36.9118 36.1623C36.9292 28.8501 36.8944 21.5553 36.9481 14.2619L36.9539 14.2663Z" fill="#015557"/>
</svg>
