<svg width="262" height="98" viewBox="0 0 262 98" fill="none" xmlns="http://www.w3.org/2000/svg">
<path d="M38.519 0.591576V15.3116H27.767V97.8716H11.639V15.3116H0.887V0.591576H38.519ZM40.92 0.591576H57.048V97.8716H40.92V0.591576ZM60.92 97.8716V0.591576H77.048C78.968 16.3356 81.144 32.0796 82.936 47.8236H83.832C85.752 32.0796 87.8 16.3356 89.72 0.591576H105.976V97.8716H91.256V48.8476H90.616L87.544 97.8716H79.352L76.28 48.8476H75.64V97.8716H60.92ZM125.923 83.1516H138.595V97.8716H109.795V0.591576H137.187V15.3116H125.923V38.6076H135.139V53.3276H125.923V83.1516ZM158.676 83.1516H171.86V97.8716H142.42V0.591576H158.676V83.1516ZM174.42 0.591576H190.548V97.8716H174.42V0.591576ZM213.108 0.591576H229.108V97.8716H214.644C213.364 85.4556 211.956 75.5996 210.676 61.9036H210.42V97.8716H194.42V0.591576H209.268C210.42 14.5436 211.7 26.0636 212.852 41.2956H213.108V0.591576ZM249.048 83.1516H261.72V97.8716H232.92V0.591576H260.312V15.3116H249.048V38.6076H258.264V53.3276H249.048V83.1516Z" fill="#FFB003"/>
</svg>
